HIERARCHY
ROOT Hips
{
  OFFSET -69.4423 88.0299 51.6846
  CHANNELS 6 Xposition Yposition Zposition Zrotation Xrotation Yrotation
  JOINT Spine
  {
    OFFSET 12.0259 -0.162853 1.93176e-005
    CHANNELS 3 Zrotation Xrotation Yrotation
    JOINT Spine1
    {
      OFFSET 15.3169 -0.0121909 0
      CHANNELS 3 Zrotation Xrotation Yrotation
      JOINT Spine2
      {
        OFFSET 15.3176 -0.0121922 0
        CHANNELS 3 Zrotation Xrotation Yrotation
        JOINT Neck
        {
          OFFSET 19.9142 1.56236 0
          CHANNELS 3 Zrotation Xrotation Yrotation
          JOINT Head
          {
            OFFSET 6.92646 0 0
            CHANNELS 3 Zrotation Xrotation Yrotation
            End Site
            {
              OFFSET 20.7666 0 0
            }
          }
          JOINT LeftShoulder
          {
            OFFSET -4.94072 -1.14703 8.14416
            CHANNELS 3 Zrotation Xrotation Yrotation
            JOINT LeftArm
            {
              OFFSET 14.108 0 -2.74767e-005
              CHANNELS 3 Zrotation Xrotation Yrotation
              JOINT LeftForeArm
              {
                OFFSET 28.5802 -0.0783412 -0.0284884
                CHANNELS 3 Zrotation Xrotation Yrotation
                JOINT LeftHand
                {
                  OFFSET 27.092 0 0
                  CHANNELS 3 Zrotation Xrotation Yrotation
                  End Site
                  {
                    OFFSET 9.55928 -0.186424 0.145352
                  }
                }
              }
            }
          }
          JOINT RightShoulder
          {
            OFFSET -7.15748 -1.33027 -6.24935
            CHANNELS 3 Zrotation Xrotation Yrotation
            JOINT RightArm
            {
              OFFSET 14.108 0 1.82997e-005
              CHANNELS 3 Zrotation Xrotation Yrotation
              JOINT RightForeArm
              {
                OFFSET 28.5802 -0.0707221 2.30684e-005
                CHANNELS 3 Zrotation Xrotation Yrotation
                JOINT RightHand
                {
                  OFFSET 27.092 0 -1.30073e-005
                  CHANNELS 3 Zrotation Xrotation Yrotation
                  End Site
                  {
                    OFFSET 9.55929 -0.186417 -0.145354
                  }
                }
              }
            }
          }
        }
      }
    }
  }
  JOINT LeftUpLeg
  {
    OFFSET 0.00499725 -0.534999 8.837
    CHANNELS 3 Zrotation Xrotation Yrotation
    JOINT LeftLeg
    {
      OFFSET 39.9035 -0.00124594 0.000252775
      CHANNELS 3 Zrotation Xrotation Yrotation
      JOINT LeftFoot
      {
        OFFSET 39.6689 0 0
        CHANNELS 3 Zrotation Xrotation Yrotation
        JOINT LeftToe
        {
          OFFSET 10.1624 13.6296 0
          CHANNELS 3 Zrotation Xrotation Yrotation
          End Site
          {
            OFFSET 8.38147 0 0
          }
        }
      }
    }
  }
  JOINT RightUpLeg
  {
    OFFSET 0.00499725 -0.535 -8.837
    CHANNELS 3 Zrotation Xrotation Yrotation
    JOINT RightLeg
    {
      OFFSET 39.9036 -0.000268477 0.000106433
      CHANNELS 3 Zrotation Xrotation Yrotation
      JOINT RightFoot
      {
        OFFSET 39.6689 1.17892e-005 0
        CHANNELS 3 Zrotation Xrotation Yrotation
        JOINT RightToe
        {
          OFFSET 10.1624 13.6296 0
          CHANNELS 3 Zrotation Xrotation Yrotation
          End Site
          {
            OFFSET 8.38147 0 0
          }
        }
      }
    }
  }
}
MOTION
Frames:	16
Frame Time:	0.0333333
48.8594 88.8983 57.6961 87.5286 39.1312 6.19386 1.4399 0.149754 -0.316487 2.88059 0.291804 -0.636492 2.88058 0.291782 -0.636497 -15.0757 -2.48857 -10.4147 41.2164 -1.70119 13.4323 -166.982 -4.05504 -93.1371 -22.7574 5.14251 82.1312 -21.5444 2.15161 -13.961 9.60017 -83.4259 11.9006 -167.025 -6.14735 75.2188 -17.3656 -8.77992 -84.9888 -27.5497 -3.86121 16.7012 5.55198 85.7589 -5.47706 2.63962 -1.67862 178.259 -7.64723 0.965639 -1.2715 0.145482 14.9236 1.23106 90 9.93923e-015 1.27222e-014 -28.2049 -7.97685 173.753 -67.0715 -0.0999425 -0.0380142 -4.05076 5.89608 1.07122 90 0 -3.18055e-015 
47.3765 88.674 59.1405 87.8451 38.2394 6.30176 1.40075 -0.0840136 -0.325865 2.80101 -0.175451 -0.650976 2.801 -0.175451 -0.65099 -15.3393 -2.28997 -10.3458 41.184 -1.36642 13.29 -166.689 -3.84847 -93.1486 -23.4937 5.08853 81.5938 -22.366 2.28242 -14.3932 11.869 -84.7728 14.1722 -166.736 -5.99825 75.2602 -16.7812 -9.13621 -84.5902 -27.024 -3.72656 16.42 5.54979 85.7859 -5.4595 3.63526 -0.946753 177.687 -8.30741 0.985641 -1.20019 1.3867 14.9283 0.940927 90 -3.97569e-015 -3.18055e-015 -30.2356 -7.27 172.973 -61.9491 -0.141646 0.056547 -1.78046 4.10825 0.438944 90 -4.77083e-015 3.18055e-015 
45.7808 88.5799 60.3794 88.5576 37.0689 6.09609 1.32461 -0.225363 -0.316702 2.64801 -0.457515 -0.627962 2.648 -0.457518 -0.627978 -15.4928 -2.13914 -10.2448 40.705 -1.25953 12.9548 -166.51 -3.65205 -93.1516 -24.6634 5.35048 81.015 -23.3564 2.44306 -14.8954 15.3748 -85.7738 17.6416 -166.557 -5.84042 75.3367 -15.2111 -9.10258 -84.1528 -26.4017 -3.56713 16.0773 4.25403 84.7832 -4.13246 5.30659 -0.434845 177.33 -7.22202 0.990606 -1.20425 2.30514 13.3871 0.701227 90 -1.43125e-014 -1.27222e-014 -31.3903 -6.50263 172.727 -54.7583 -0.147814 0.183065 0.137956 7.16928 0.686087 90 -1.03368e-014 -3.18055e-015 
44.0808 88.4606 61.4905 89.2876 36.6495 5.50532 1.30304 -0.499957 -0.252973 2.60402 -1.00506 -0.494403 2.60401 -1.00506 -0.494409 -15.8797 -2.06553 -10.2385 40.2127 -1.1403 12.9909 -166.086 -3.58007 -93.1559 -25.2779 4.76501 80.0413 -23.7427 2.50839 -15.0996 17.2418 -86.3177 19.5619 -166.164 -5.84509 75.3567 -14.1974 -8.85801 -83.9999 -25.9908 -3.46473 15.846 3.94697 84.3985 -3.80116 6.56114 -0.852855 177.452 -6.47614 0.997329 -1.25193 2.2226 12.8859 0.808321 90 -1.74931e-014 -6.36111e-015 -31.8152 -6.60988 172.721 -46.2719 -0.131232 0.33597 -0.345055 12.1277 1.59636 90 1.03368e-014 7.95139e-015 
42.3273 88.4683 62.6302 89.9946 36.3249 5.22743 1.27959 -0.704082 -0.247019 2.55251 -1.41296 -0.478182 2.55249 -1.41295 -0.478194 -16.5729 -2.13967 -10.4731 40.1044 -1.32727 13.2335 -165.395 -3.75555 -93.2987 -25.192 3.85591 79.1799 -23.7469 2.51171 -15.1231 14.5968 -85.7865 16.8746 -165.524 -6.10058 75.2051 -13.1506 -8.80425 -84.0065 -25.7804 -3.41414 15.7264 4.38574 84.9771 -4.23446 9.53492 -1.92422 177.304 -2.44563 0.978374 -1.41655 0.984266 11.9367 1.07184 90 -7.95139e-015 -3.18055e-015 -32.1326 -6.79983 172.189 -37.5821 -0.0687269 0.481831 -4.30115 14.0104 3.11263 90 -1.61016e-014 -1.74931e-014 
40.3173 88.4532 63.7321 90.3603 35.6923 5.34371 1.28422 -0.760286 -0.260346 2.56534 -1.52572 -0.503499 2.56532 -1.52573 -0.503509 -16.5434 -2.23631 -10.1716 39.2059 -1.89017 12.642 -165.382 -3.6838 -92.9983 -26.5639 3.43888 78.5704 -23.7957 2.51097 -15.1501 19.1895 -86.6494 21.4703 -165.54 -6.08058 75.4907 -11.9413 -8.82136 -83.9517 -25.286 -3.29569 15.4571 4.42487 85.0183 -4.25766 11.1226 -2.66092 176.974 -1.87267 0.982024 -1.43725 1.16182 10.3823 0.907769 90 -3.18055e-015 -6.36111e-015 -31.8906 -5.54192 171.999 -30.806 -0.0577201 0.577595 -6.32985 12.3807 3.39525 90 6.75868e-015 4.77083e-015 
38.1226 88.3883 64.753 90.4657 35.1309 5.00619 1.30768 -0.84185 -0.184436 2.61309 -1.68726 -0.349497 2.61308 -1.68723 -0.349522 -16.7091 -2.06549 -10.2311 38.9923 -1.49903 12.7089 -165.177 -3.54072 -93.0958 -26.6294 3.01747 78.1497 -24.0304 2.55749 -15.2837 22.0162 -87.0039 24.3147 -165.361 -5.96594 75.3994 -11.7991 -9.02251 -84.296 -25.0336 -3.23057 15.3178 4.17714 84.8107 -4.02096 12.6673 -3.3617 177.382 -1.88171 0.988877 -1.43601 0.90804 9.04037 0.820238 90 -7.15625e-015 -0 -30.9801 -4.12445 172.717 -26.893 -0.0911796 0.653599 -4.67284 12.67 3.08234 90 -1.31198e-014 -9.54166e-015 
35.7468 88.3209 65.6475 90.4686 33.8907 4.61918 1.30917 -0.737662 -0.116262 2.61718 -1.47756 -0.215515 2.61718 -1.47757 -0.215523 -16.6154 -1.99565 -9.96553 38.7513 -1.44851 12.4268 -165.239 -3.36548 -92.8789 -26.4355 2.78803 78.2299 -24.2857 2.61063 -15.436 18.5928 -86.4982 20.8584 -165.421 -5.79444 75.6065 -11.0664 -8.95458 -84.7088 -24.2722 -3.05065 14.9106 3.45342 83.7194 -3.27354 14.4864 -3.33935 177.894 -1.9133 1.00464 -1.41632 0.801231 7.88338 0.712395 90 -1.03368e-014 -9.54166e-015 -30.3614 -5.1999 173.536 -26.2788 -0.105356 0.664336 -4.30994 12.3343 2.90852 90 -9.54166e-015 -7.95139e-015 
33.1984 88.253 66.5083 90.6499 32.2294 4.6448 1.23546 -0.566774 -0.149238 2.46961 -1.13613 -0.286089 2.4696 -1.13613 -0.286103 -16.5983 -1.78196 -9.81808 38.8471 -1.16399 12.0514 -165.231 -3.12085 -92.8208 -26.0846 3.00756 78.5142 -24.7993 2.71102 -15.703 19.5415 -86.6476 21.8175 -165.395 -5.50493 75.6715 -9.48235 -8.85376 -84.9162 -23.28 -2.82234 14.3698 2.49079 81.4683 -2.28328 16.1473 -2.98679 178.012 -1.91067 1.0352 -1.3657 -0.554097 8.09629 0.802983 90 1.59028e-015 -0 -29.9031 -7.1345 174.067 -27.4884 -0.10849 0.604545 -6.59143 9.50781 2.72813 90 -7.95139e-015 -1.27222e-014 
30.3225 88.1795 67.4411 90.5135 31.0626 4.75353 1.15088 -0.469598 -0.188758 2.30033 -0.942365 -0.367909 2.30031 -0.94237 -0.367926 -16.5138 -1.64565 -9.87597 38.9546 -0.873497 12.0223 -165.335 -3.06214 -92.9578 -25.6785 3.93016 79.3363 -25.5481 2.85026 -16.0772 19.1557 -86.871 21.4406 -165.478 -5.31221 75.6041 -9.781 -9.90079 -85.5679 -23.5044 -2.87233 14.4966 2.61759 81.8261 -2.4322 18.0472 -3.11567 178.348 -1.90399 1.05963 -1.31504 -2.46601 8.58114 0.990749 90 -9.54166e-015 -9.54166e-015 -28.1899 -7.73384 175.065 -28.7183 -0.161903 0.556144 -6.55748 6.79464 1.96666 90 -1.15295e-014 -1.27222e-014 
27.2287 88.5948 68.2186 90.0415 30.0229 4.60389 1.02539 -0.518653 -0.144475 2.04961 -1.03934 -0.279499 2.04959 -1.03933 -0.279512 -16.0535 -1.26043 -9.25468 39.2232 -0.400989 11.0475 -165.758 -2.5219 -92.5434 -24.5298 5.31177 80.496 -26.0507 2.94995 -16.3069 20.3147 -87.0455 22.5997 -165.865 -4.61701 76.1065 -12.3402 -11.6752 -86.5339 -24.1637 -3.02444 14.8873 4.15926 84.7404 -4.03761 17.518 -3.1704 179.082 -6.49975 1.11877 -1.07481 -4.51525 9.18071 1.14916 90 1.59028e-015 -0 -26.2952 -7.49378 176.513 -28.414 -0.163868 0.492555 -8.9405 7.61813 2.63941 90 2.38542e-015 6.36111e-015 
24.0999 88.8502 68.8571 90.0182 28.0255 3.76604 0.941631 -0.257549 -0.000121445 1.8833 -0.514576 0.00414883 1.88329 -0.51462 0.00414221 -16.2363 -1.04024 -9.26095 39.4998 -0.0303634 10.8723 -165.589 -2.42063 -92.5806 -23.4645 5.85528 81.6386 -25.7674 2.90303 -16.1572 17.8123 -86.5772 20.0752 -165.656 -4.39571 76.0269 -12.0399 -11.5139 -86.8925 -23.6845 -2.92009 14.6448 4.11478 84.5189 -3.99974 13.9796 -2.16626 -179.966 -15.5298 1.19639 -0.749825 -8.1039 11.4111 1.99415 90 -6.36111e-015 -1.59028e-015 -24.2441 -6.46852 178.923 -28.7284 -0.244676 0.433708 -8.35848 6.74171 2.25733 90 4.37326e-015 6.36111e-015 
21.104 89.0646 69.6066 89.5563 26.2237 3.79689 0.902468 -0.0370068 0.0175536 1.80495 -0.0733132 0.0358534 1.80494 -0.073278 0.0358353 -16.1966 -0.888576 -9.51404 39.7314 0.313953 10.9491 -165.676 -2.44264 -92.8571 -22.5212 6.81524 82.9176 -25.6762 2.88955 -16.1022 15.8942 -86.2988 18.1786 -165.691 -4.29318 75.7418 -11.659 -11.5425 -86.9955 -23.432 -2.86244 14.51 3.41528 83.4102 -3.27877 9.84925 -1.84422 -179.539 -24.3038 1.24258 -0.457999 -15.207 15.0838 4.23045 90 6.36111e-015 -1.19271e-015 -22.2112 -6.9728 179.807 -29.701 -0.330648 0.378997 -6.25746 5.33605 1.53331 90 -2.38542e-015 -0 
18.1665 89.1543 70.2199 88.821 24.741 2.94958 0.99385 0.114238 0.248357 1.9872 0.233258 0.494851 1.98722 0.233253 0.494843 -16.2331 -0.72505 -9.57299 39.3742 0.461894 10.637 -165.647 -2.3719 -92.9521 -22.6887 7.41484 84.0225 -25.4714 2.84805 -15.9985 15.5963 -86.2711 17.905 -165.623 -4.1326 75.6435 -13.3447 -11.6725 -86.8705 -23.9539 -2.97437 14.7855 3.90435 84.3515 -3.77245 5.47449 -1.72725 -177.984 -32.1753 1.24351 -0.278187 -24.9512 18.1815 7.99788 90 -1.11319e-014 -9.54166e-015 -19.5511 -7.22402 -178.487 -30.0705 -0.418731 0.327366 -4.19857 4.12197 0.965408 90 1.11319e-014 1.27222e-014 
15.3516 89.2861 70.7359 88.1788 23.1192 1.98658 1.07017 0.314614 0.469966 2.13779 0.638359 0.934153 2.13778 0.638377 0.934141 -15.9579 -0.63129 -8.90221 38.7202 0.235042 9.65894 -165.883 -2.07366 -92.3369 -23.4562 7.78284 84.8276 -24.7974 2.70882 -15.65 11.3498 -84.9168 13.5819 -165.828 -3.78396 76.2419 -15.6768 -11.8951 -86.4874 -24.9404 -3.19741 15.3035 4.35267 85.027 -4.21232 1.01569 -1.77554 -176.436 -40.0217 1.18632 -0.10943 -29.3026 19.7898 10.259 90 1.59028e-014 1.27222e-014 -16.4889 -6.98801 -176.472 -29.3458 -0.494222 0.282339 -3.00287 3.47248 0.699478 90 1.19271e-014 6.36111e-015 
12.6666 89.44 71.1838 87.712 21.0646 0.893637 1.12437 0.643112 0.670905 2.24134 1.29969 1.32934 2.24134 1.29969 1.32933 -15.8036 -0.640561 -8.77474 38.7298 0.361329 9.81101 -166.039 -2.05889 -92.1923 -24.1232 7.71467 85.3967 -24.3509 2.62214 -15.4396 8.76267 -84.0323 11.0425 -165.945 -3.77196 76.3217 -14.6181 -10.2329 -85.8925 -24.6764 -3.13182 15.1437 2.8258 82.6091 -2.63762 -3.34953 -1.06817 -174.622 -47.4809 1.05956 0.0336351 -21.1766 19.0434 7.22092 90 4.77083e-015 8.74653e-015 -13.35 -6.19071 -174.412 -27.9677 -0.560273 0.235738 -2.24059 2.69945 0.447944 90 -3.33958e-014 -3.18055e-014 
